<?xml version="1.0" encoding="UTF-8"?>
<svg width="100px" height="100px" viewBox="0 0 100 100" version="1.1" xmlns="http://www.w3.org/2000/svg" xmlns:xlink="http://www.w3.org/1999/xlink">
    <title>File</title>
    <g stroke="none" stroke-width="1" fill="none" fill-rule="evenodd">
        <!-- Improved background for better visibility -->
        <rect fill="#6D28D9" opacity="0.4" x="0" y="0" width="100" height="100" rx="8"></rect>
        <!-- Added drop shadow for better contrast -->
        <filter id="shadow" x="-20%" y="-20%" width="140%" height="140%">
            <feDropShadow dx="0" dy="0" stdDeviation="2" flood-color="#000000" flood-opacity="0.3"/>
        </filter>
        <path d="M65,22 L35,22 C31.7,22 29.04,24.7 29.04,28 L29,72 C29,75.3 31.67,78 34.97,78 L65,78 C68.3,78 71,75.3 71,72 L71,28 C71,24.7 68.3,22 65,22 Z M65,64 L35,64 L35,57 L65,57 L65,64 Z M65,50 L35,50 L35,43 L65,43 L65,50 Z M58,36 L58,22.5 L71.5,36 L58,36 Z" fill="#FFFFFF" fill-rule="nonzero" filter="url(#shadow)"></path>
    </g>
</svg>